<svg xmlns="http://www.w3.org/2000/svg" xmlns:v="https://svgstorm.com"
viewBox = "0 0 440 114"
width="440"
height="114">
<g fill="None" fill-opacity="0.0" stroke="#000000" stroke-opacity="0.00" stroke-width="0.3"><path d="
M 0.00 114.00 
L 440.00 114.00
L 440.00 0.00
L 0.00 0.00
L 0.00 114.00
M 81.00 17.00 
C 90.84 26.84 108.65 38.49 112.00 52.00
C 112.71 54.88 114.10 59.17 112.00 62.00
C 112.00 62.50 112.00 63.00 112.00 63.00
C 108.82 71.11 98.61 80.13 91.75 85.75 C 84.89 91.37 77.16 102.99 69.00 106.00
C 64.91 107.51 60.00 106.99 56.00 106.00
C 49.51 104.39 42.24 95.55 37.75 91.25 C 33.26 86.95 21.00 76.83 27.75 72.75 C 34.50 68.67 42.67 81.45 47.25 85.75 C 51.83 90.06 61.56 100.67 68.08 94.08 C 74.59 87.48 80.14 83.79 85.25 77.25 C 90.35 70.70 99.65 67.10 101.00 59.00
C 102.46 50.24 92.05 43.91 87.00 38.00
C 83.75 34.99 81.14 32.14 78.00 29.00
C 75.51 26.51 70.88 20.50 68.00 19.00
C 58.49 16.59 50.50 24.44 45.00 31.00
C 41.46 38.08 33.58 42.27 30.00 49.00
C 45.09 45.08 46.76 68.12 31.00 65.00
C 25.93 65.19 17.83 66.45 13.00 65.00
C 6.09 62.93 6.47 49.78 10.31 45.31 C 14.14 40.83 19.54 35.81 24.00 32.00
C 29.74 25.54 31.91 23.83 38.25 16.25 C 44.59 8.67 49.58 7.57 60.00 7.00 C 70.42 6.43 73.93 9.93 81.00 17.00
M 73.00 55.00 
C 74.00 55.48 74.13 55.39 75.00 56.00
C 76.35 56.94 77.13 57.65 78.00 59.00
C 83.39 67.39 77.63 78.57 67.00 79.00
C 66.21 81.12 66.15 83.30 66.00 86.00
C 61.47 87.65 55.95 83.51 59.00 79.00
C 52.36 78.88 46.76 73.52 46.00 67.00
C 49.26 67.60 51.91 66.17 55.00 66.00
C 57.22 72.81 71.04 73.44 70.00 65.00
C 65.69 64.49 60.23 59.85 54.93 59.07 C 49.63 58.30 45.63 50.04 47.00 45.00 C 48.37 39.96 53.59 35.22 59.00 35.00
C 55.52 29.91 61.16 26.40 66.00 28.00
C 64.12 37.93 80.82 36.13 79.00 47.00
C 72.77 50.51 62.73 37.64 58.10 45.10 C 53.47 52.56 70.60 51.56 73.00 55.00
M 406.00 30.00 
C 406.42 30.41 406.88 31.43 407.00 32.00
C 407.47 34.19 408.26 42.68 408.00 44.00
C 412.22 40.36 420.60 41.74 424.74 44.26 C 428.88 46.77 431.86 54.95 430.00 60.00 C 428.14 65.05 433.32 76.13 430.00 80.00
C 428.60 81.63 422.33 81.75 421.00 80.00
C 418.92 77.26 421.14 69.44 420.00 66.00 C 418.86 62.56 421.61 55.10 418.69 52.31 C 415.78 49.51 409.54 50.49 407.75 53.75 C 405.96 57.01 405.25 62.12 406.00 66.00
C 406.13 66.67 406.89 67.80 407.00 69.00
C 407.53 71.37 406.96 79.82 405.00 81.00
C 403.38 81.97 398.05 81.06 397.00 80.00
C 393.74 76.71 398.25 69.55 397.00 65.00 C 395.75 60.45 397.18 54.02 396.22 48.78 C 395.26 43.54 398.49 35.77 397.00 30.00
C 400.05 31.01 403.97 28.40 406.00 30.00
M 139.00 31.00 
C 142.12 35.46 137.45 46.55 139.00 52.00 C 140.55 57.45 138.13 65.99 139.00 71.00
C 145.23 72.57 152.76 72.56 159.00 71.00
C 161.53 74.14 158.03 77.45 159.00 81.00
C 147.65 79.89 127.23 86.42 129.00 71.00 C 130.77 55.58 127.67 45.90 129.00 31.00
C 130.23 29.24 137.80 29.28 139.00 31.00
M 317.00 73.00 
C 312.97 77.77 307.15 80.42 301.00 81.00
C 296.49 81.42 280.89 83.00 278.00 80.00
C 276.51 63.47 278.91 45.85 278.00 30.00
C 290.55 30.29 308.57 27.21 317.25 37.75 C 325.92 48.29 324.46 62.90 317.00 73.00
M 184.00 42.00 
C 206.67 46.69 199.90 86.43 175.78 81.22 C 151.66 76.01 158.21 36.66 184.00 42.00
M 221.00 50.00 
C 219.85 49.65 217.19 49.79 216.00 50.00
C 211.30 52.70 208.57 57.04 202.00 54.00
C 202.75 47.60 207.08 42.53 214.02 42.02 C 220.96 41.52 227.95 42.38 231.92 49.08 C 235.89 55.78 231.86 63.29 234.00 71.00 C 236.14 78.71 229.90 86.05 224.00 78.00
C 216.78 84.17 202.11 83.55 200.22 71.78 C 198.34 60.01 214.42 55.88 224.00 58.00
C 224.53 54.74 223.47 51.71 221.00 50.00
M 272.00 81.00 
C 269.00 81.00 266.00 81.00 263.00 81.00
C 261.46 73.79 267.98 49.08 255.31 50.35 C 242.63 51.63 251.50 73.17 248.00 81.00
C 236.92 84.14 237.84 75.02 238.00 67.00 C 238.16 58.98 238.25 50.89 239.00 43.00
C 248.36 47.19 260.11 36.70 268.25 45.75 C 276.38 54.81 269.86 69.89 272.00 81.00
M 358.00 53.00 
C 358.01 53.50 358.00 54.00 358.00 54.00
C 360.17 56.93 358.05 60.37 358.00 63.00
C 358.35 67.39 359.97 72.32 359.00 77.00
C 358.74 78.28 359.20 79.71 359.00 81.00
C 356.16 80.41 352.02 82.22 350.00 80.00
C 345.96 79.01 337.63 84.21 331.77 80.23 C 325.92 76.24 322.19 69.56 327.26 63.26 C 332.32 56.95 341.61 57.92 349.00 58.00
C 349.00 56.67 349.00 55.33 349.00 54.00
C 344.05 50.47 338.26 47.85 335.00 56.00
C 332.47 54.86 329.78 54.30 327.00 54.00
C 327.23 38.09 356.50 37.37 358.00 53.00
M 378.00 57.00 
C 383.20 58.49 391.26 58.46 392.92 65.08 C 394.59 71.69 393.56 76.20 386.92 79.92 C 380.28 83.64 375.24 81.75 367.77 79.23 C 360.30 76.71 363.47 66.32 369.00 69.00 C 374.53 71.68 381.26 77.19 383.77 70.77 C 386.27 64.35 371.06 64.88 368.00 63.00
C 366.46 62.05 364.70 60.69 364.00 59.00
C 358.81 52.56 366.87 42.70 374.03 42.02 C 381.18 41.35 391.96 44.02 393.00 53.00
C 386.67 54.97 385.72 53.25 379.92 50.08 C 374.12 46.91 368.63 57.27 378.00 57.00 Z"/>
</g>
<g fill="None" fill-opacity="0.0" stroke="#1DE46A" stroke-opacity="0.94" stroke-width="0.3"><path d="
M 24.00 32.00 
C 25.38 30.82 27.39 29.85 28.00 28.00
C 30.56 29.91 34.73 30.37 37.00 33.00
C 39.48 27.12 42.78 30.27 47.00 27.00
C 46.95 28.54 42.97 29.93 45.00 31.00
C 50.50 24.44 58.49 16.59 68.00 19.00
C 71.82 19.97 75.80 26.23 80.00 29.00
C 82.36 25.51 86.52 28.09 89.00 30.00
C 91.87 24.69 80.07 21.19 81.00 17.00
C 73.93 9.93 70.42 6.43 60.00 7.00 C 49.58 7.57 44.59 8.67 38.25 16.25 C 31.91 23.83 29.74 25.54 24.00 32.00 Z"/>
</g>
<g fill="None" fill-opacity="0.0" stroke="#17C966" stroke-opacity="0.93" stroke-width="0.3"><path d="
M 68.00 19.00 
C 71.97 21.54 74.79 25.79 78.00 29.00
C 80.99 31.99 84.27 34.81 87.00 38.00
C 92.05 43.91 102.46 50.24 101.00 59.00
C 101.82 61.23 105.17 63.49 107.00 65.00
C 108.30 60.48 109.28 60.16 112.00 63.00
C 112.00 63.00 112.00 62.50 112.00 62.00
C 112.00 58.75 112.40 55.22 112.00 52.00
C 108.65 38.49 90.84 26.84 81.00 17.00
C 80.07 21.19 91.87 24.69 89.00 30.00
C 86.52 28.09 82.36 25.51 80.00 29.00
C 75.80 26.23 71.82 19.97 68.00 19.00 Z"/>
</g>
<g fill="None" fill-opacity="0.0" stroke="#40BC7F" stroke-opacity="0.34" stroke-width="0.3"><path d="
M 78.00 29.00 
C 74.79 25.79 71.97 21.54 68.00 19.00
C 70.88 20.50 75.51 26.51 78.00 29.00 Z"/>
</g>
<g fill="None" fill-opacity="0.0" stroke="#14CC64" stroke-opacity="0.93" stroke-width="0.3"><path d="
M 24.00 32.00 
C 19.54 35.81 14.14 40.83 10.31 45.31 C 6.47 49.78 6.09 62.93 13.00 65.00
C 17.99 62.33 26.06 64.71 31.00 65.00
C 46.76 68.12 45.09 45.08 30.00 49.00
C 33.58 42.27 41.46 38.08 45.00 31.00
C 42.97 29.93 46.95 28.54 47.00 27.00
C 42.78 30.27 39.48 27.12 37.00 33.00
C 34.73 30.37 30.56 29.91 28.00 28.00
C 27.39 29.85 25.38 30.82 24.00 32.00 Z"/>
</g>
<g fill="None" fill-opacity="0.0" stroke="#1CCA6A" stroke-opacity="0.89" stroke-width="0.3"><path d="
M 70.00 65.00 
C 70.21 64.17 71.58 63.69 69.00 61.00
C 73.43 65.36 73.16 58.93 70.00 58.00
C 70.67 56.80 71.64 55.42 73.00 55.00
C 70.60 51.56 53.47 52.56 58.10 45.10 C 62.73 37.64 72.77 50.51 79.00 47.00
C 80.82 36.13 64.12 37.93 66.00 28.00
C 61.16 26.40 55.52 29.91 59.00 35.00
C 53.59 35.22 48.37 39.96 47.00 45.00 C 45.63 50.04 49.63 58.30 54.93 59.07 C 60.23 59.85 65.69 64.49 70.00 65.00 Z"/>
</g>
<g fill="None" fill-opacity="0.0" stroke="#22AF65" stroke-opacity="0.70" stroke-width="0.3"><path d="
M 87.00 38.00 
C 84.27 34.81 80.99 31.99 78.00 29.00
C 81.14 32.14 83.75 34.99 87.00 38.00 Z"/>
</g>
<g fill="None" fill-opacity="0.0" stroke="#18CB64" stroke-opacity="0.90" stroke-width="0.3"><path d="
M 397.00 80.00 
C 398.98 81.35 403.69 78.24 405.00 81.00
C 406.96 79.82 407.53 71.37 407.00 69.00
C 406.83 68.23 406.08 67.31 406.00 66.00
C 405.25 62.12 405.96 57.01 407.75 53.75 C 409.54 50.49 415.78 49.51 418.69 52.31 C 421.61 55.10 418.86 62.56 420.00 66.00 C 421.14 69.44 418.92 77.26 421.00 80.00
C 424.00 80.00 427.00 80.00 430.00 80.00
C 433.32 76.13 428.14 65.05 430.00 60.00 C 431.86 54.95 428.88 46.77 424.74 44.26 C 420.60 41.74 412.22 40.36 408.00 44.00
C 407.14 44.74 407.24 45.55 406.00 46.00
C 404.11 46.68 404.42 30.07 406.00 30.00
C 403.97 28.40 400.05 31.01 397.00 30.00
C 398.49 35.77 395.26 43.54 396.22 48.78 C 397.18 54.02 395.75 60.45 397.00 65.00 C 398.25 69.55 393.74 76.71 397.00 80.00 Z"/>
</g>
<g fill="None" fill-opacity="0.0" stroke="#39CBDE" stroke-opacity="0.66" stroke-width="0.3"><path d="
M 129.00 31.00 
C 132.31 32.40 135.74 31.95 139.00 31.00
C 137.80 29.28 130.23 29.24 129.00 31.00 Z"/>
</g>
<g fill="None" fill-opacity="0.0" stroke="#18D468" stroke-opacity="0.90" stroke-width="0.3"><path d="
M 278.00 80.00 
C 278.00 80.04 279.00 80.00 279.00 80.00
C 279.72 72.02 277.89 63.62 280.00 56.00
C 282.03 58.15 284.92 61.41 286.00 57.00
C 286.39 58.57 285.06 61.22 287.00 62.00
C 287.00 54.33 287.00 46.67 287.00 39.00
C 288.26 39.08 287.56 41.06 289.00 41.00
C 295.00 39.55 304.82 37.75 308.92 44.08 C 313.01 50.42 314.10 59.71 310.00 66.00
C 313.75 65.88 314.87 73.60 317.00 73.00
C 324.46 62.90 325.92 48.29 317.25 37.75 C 308.57 27.21 290.55 30.29 278.00 30.00
C 278.91 45.85 276.51 63.47 278.00 80.00 Z"/>
</g>
<g fill="None" fill-opacity="0.0" stroke="#1AD174" stroke-opacity="0.49" stroke-width="0.3"><path d="
M 406.00 46.00 
C 406.98 42.99 406.98 34.58 407.00 32.00
C 406.88 31.43 406.42 30.41 406.00 30.00
C 404.42 30.07 404.11 46.68 406.00 46.00 Z"/>
</g>
<g fill="None" fill-opacity="0.0" stroke="#21B3D2" stroke-opacity="0.88" stroke-width="0.3"><path d="
M 139.00 31.00 
C 135.74 31.95 132.31 32.40 129.00 31.00
C 127.67 45.90 130.77 55.58 129.00 71.00 C 127.23 86.42 147.65 79.89 159.00 81.00
C 158.03 77.45 161.53 74.14 159.00 71.00
C 152.76 72.56 145.23 72.57 139.00 71.00
C 138.13 65.99 140.55 57.45 139.00 52.00 C 137.45 46.55 142.12 35.46 139.00 31.00 Z"/>
</g>
<g fill="None" fill-opacity="0.0" stroke="#3DBE83" stroke-opacity="0.03" stroke-width="0.3"><path d="
M 406.00 46.00 
C 407.24 45.55 407.14 44.74 408.00 44.00
C 408.26 42.68 407.47 34.19 407.00 32.00
C 406.98 34.58 406.98 42.99 406.00 46.00 Z"/>
</g>
<g fill="None" fill-opacity="0.0" stroke="#27AC69" stroke-opacity="0.36" stroke-width="0.3"><path d="
M 287.00 62.00 
C 287.00 65.33 287.00 68.67 287.00 72.00
C 290.17 71.39 294.65 73.25 297.00 71.00
C 294.34 71.10 291.66 70.92 289.00 71.00
C 289.00 61.00 289.00 51.00 289.00 41.00
C 287.56 41.06 288.26 39.08 287.00 39.00
C 287.00 46.67 287.00 54.33 287.00 62.00 Z"/>
</g>
<g fill="None" fill-opacity="0.0" stroke="#000000" stroke-opacity="0.00" stroke-width="0.3"><path d="
M 289.00 41.00 
C 289.00 51.00 289.00 61.00 289.00 71.00
C 291.66 70.92 294.34 71.10 297.00 71.00
C 301.91 70.81 307.22 70.26 310.00 66.00
C 314.10 59.71 313.01 50.42 308.92 44.08 C 304.82 37.75 295.00 39.55 289.00 41.00 Z"/>
</g>
<g fill="None" fill-opacity="0.0" stroke="#20B6D6" stroke-opacity="0.88" stroke-width="0.3"><path d="
M 184.00 42.00 
C 158.21 36.66 151.66 76.01 175.78 81.22 C 199.90 86.43 206.67 46.69 184.00 42.00
M 181.00 50.00 
C 192.79 51.89 189.04 76.26 177.00 73.00 C 164.96 69.73 169.12 48.09 181.00 50.00 Z"/>
</g>
<g fill="None" fill-opacity="0.0" stroke="#21B7D6" stroke-opacity="0.86" stroke-width="0.3"><path d="
M 216.00 50.00 
C 218.49 48.57 217.76 47.36 221.00 50.00
C 223.47 51.71 224.53 54.74 224.00 58.00
C 214.42 55.88 198.34 60.01 200.22 71.78 C 202.11 83.55 216.78 84.17 224.00 78.00
C 229.90 86.05 236.14 78.71 234.00 71.00 C 231.86 63.29 235.89 55.78 231.92 49.08 C 227.95 42.38 220.96 41.52 214.02 42.02 C 207.08 42.53 202.75 47.60 202.00 54.00
C 208.57 57.04 211.30 52.70 216.00 50.00
M 224.00 65.00 
C 225.56 70.46 216.17 78.58 211.26 72.74 C 206.34 66.91 219.16 62.91 224.00 65.00 Z"/>
</g>
<g fill="None" fill-opacity="0.0" stroke="#22BAD8" stroke-opacity="0.83" stroke-width="0.3"><path d="
M 272.00 81.00 
C 269.86 69.89 276.38 54.81 268.25 45.75 C 260.11 36.70 248.36 47.19 239.00 43.00
C 238.25 50.89 238.16 58.98 238.00 67.00 C 237.84 75.02 236.92 84.14 248.00 81.00
C 251.50 73.17 242.63 51.63 255.31 50.35 C 267.98 49.08 261.46 73.79 263.00 81.00
C 266.00 81.00 269.00 81.00 272.00 81.00 Z"/>
</g>
<g fill="None" fill-opacity="0.0" stroke="#1FD36A" stroke-opacity="0.88" stroke-width="0.3"><path d="
M 349.00 54.00 
C 351.59 55.85 355.93 56.30 358.00 53.00
C 356.50 37.37 327.23 38.09 327.00 54.00
C 329.78 54.30 332.47 54.86 335.00 56.00
C 338.26 47.85 344.05 50.47 349.00 54.00 Z"/>
</g>
<g fill="None" fill-opacity="0.0" stroke="#1ED268" stroke-opacity="0.87" stroke-width="0.3"><path d="
M 364.00 59.00 
C 364.20 59.24 365.00 59.00 365.00 59.00
C 368.33 62.39 373.26 57.64 375.00 63.00
C 380.54 63.99 377.61 58.55 378.00 57.00
C 368.63 57.27 374.12 46.91 379.92 50.08 C 385.72 53.25 386.67 54.97 393.00 53.00
C 391.96 44.02 381.18 41.35 374.03 42.02 C 366.87 42.70 358.81 52.56 364.00 59.00 Z"/>
</g>
<g fill="None" fill-opacity="0.0" stroke="#2DCBEB" stroke-opacity="0.70" stroke-width="0.3"><path d="
M 216.00 50.00 
C 217.19 49.79 219.85 49.65 221.00 50.00
C 217.76 47.36 218.49 48.57 216.00 50.00 Z"/>
</g>
<g fill="None" fill-opacity="0.0" stroke="#000000" stroke-opacity="0.00" stroke-width="0.3"><path d="
M 181.00 50.00 
C 169.12 48.09 164.96 69.73 177.00 73.00 C 189.04 76.26 192.79 51.89 181.00 50.00 Z"/>
</g>
<g fill="None" fill-opacity="0.0" stroke="#3E9378" stroke-opacity="0.03" stroke-width="0.3"><path d="
M 112.00 62.00 
C 114.10 59.17 112.71 54.88 112.00 52.00
C 112.40 55.22 112.00 58.75 112.00 62.00 Z"/>
</g>
<g fill="None" fill-opacity="0.0" stroke="#14BE62" stroke-opacity="0.88" stroke-width="0.3"><path d="
M 349.00 54.00 
C 349.00 55.33 349.00 56.67 349.00 58.00
C 341.61 57.92 332.32 56.95 327.26 63.26 C 322.19 69.56 325.92 76.24 331.77 80.23 C 337.63 84.21 345.96 79.01 350.00 80.00
C 352.64 80.25 355.35 79.81 358.00 80.00
C 358.11 79.00 357.53 77.27 359.00 77.00
C 359.97 72.32 358.35 67.39 358.00 63.00
C 357.77 60.04 358.00 56.97 358.00 54.00
C 358.00 54.00 358.01 53.50 358.00 53.00
C 355.93 56.30 351.59 55.85 349.00 54.00
M 349.00 67.00 
C 346.94 71.25 340.02 77.95 336.08 71.92 C 332.15 65.88 345.92 63.42 349.00 66.00
C 348.12 61.30 351.65 67.69 349.00 67.00 Z"/>
</g>
<g fill="None" fill-opacity="0.0" stroke="#41B180" stroke-opacity="0.09" stroke-width="0.3"><path d="
M 358.00 63.00 
C 358.05 60.37 360.17 56.93 358.00 54.00
C 358.00 56.97 357.77 60.04 358.00 63.00 Z"/>
</g>
<g fill="None" fill-opacity="0.0" stroke="#17B763" stroke-opacity="0.88" stroke-width="0.3"><path d="
M 70.00 65.00 
C 71.04 73.44 57.22 72.81 55.00 66.00
C 51.91 66.17 49.26 67.60 46.00 67.00
C 46.76 73.52 52.36 78.88 59.00 79.00
C 55.95 83.51 61.47 87.65 66.00 86.00
C 66.15 83.30 66.21 81.12 67.00 79.00
C 77.63 78.57 83.39 67.39 78.00 59.00
C 77.35 58.18 75.73 56.72 75.00 56.00
C 74.13 55.39 74.00 55.48 73.00 55.00
C 71.64 55.42 70.67 56.80 70.00 58.00
C 73.16 58.93 73.43 65.36 69.00 61.00
C 71.58 63.69 70.21 64.17 70.00 65.00 Z"/>
</g>
<g fill="None" fill-opacity="0.0" stroke="#3AAE7A" stroke-opacity="0.29" stroke-width="0.3"><path d="
M 78.00 59.00 
C 77.13 57.65 76.35 56.94 75.00 56.00
C 75.73 56.72 77.35 58.18 78.00 59.00 Z"/>
</g>
<g fill="None" fill-opacity="0.0" stroke="#0DB85E" stroke-opacity="0.95" stroke-width="0.3"><path d="
M 279.00 80.00 
C 286.17 80.00 294.65 80.98 301.00 81.00
C 307.15 80.42 312.97 77.77 317.00 73.00
C 314.87 73.60 313.75 65.88 310.00 66.00
C 307.22 70.26 301.91 70.81 297.00 71.00
C 294.65 73.25 290.17 71.39 287.00 72.00
C 287.00 68.67 287.00 65.33 287.00 62.00
C 285.06 61.22 286.39 58.57 286.00 57.00
C 284.92 61.41 282.03 58.15 280.00 56.00
C 277.89 63.62 279.72 72.02 279.00 80.00 Z"/>
</g>
<g fill="None" fill-opacity="0.0" stroke="#18B863" stroke-opacity="0.85" stroke-width="0.3"><path d="
M 365.00 59.00 
C 365.93 60.08 366.95 62.19 368.00 63.00
C 371.06 64.88 386.27 64.35 383.77 70.77 C 381.26 77.19 374.53 71.68 369.00 69.00 C 363.47 66.32 360.30 76.71 367.77 79.23 C 375.24 81.75 380.28 83.64 386.92 79.92 C 393.56 76.20 394.59 71.69 392.92 65.08 C 391.26 58.46 383.20 58.49 378.00 57.00
C 377.61 58.55 380.54 63.99 375.00 63.00
C 373.26 57.64 368.33 62.39 365.00 59.00 Z"/>
</g>
<g fill="None" fill-opacity="0.0" stroke="#13AB5D" stroke-opacity="0.92" stroke-width="0.3"><path d="
M 56.00 106.00 
C 59.61 106.45 65.46 106.79 69.00 106.00
C 77.16 102.99 84.89 91.37 91.75 85.75 C 98.61 80.13 108.82 71.11 112.00 63.00
C 109.28 60.16 108.30 60.48 107.00 65.00
C 105.17 63.49 101.82 61.23 101.00 59.00
C 99.65 67.10 90.35 70.70 85.25 77.25 C 80.14 83.79 74.59 87.48 68.08 94.08 C 61.56 100.67 51.83 90.06 47.25 85.75 C 42.67 81.45 34.50 68.67 27.75 72.75 C 21.00 76.83 33.26 86.95 37.75 91.25 C 42.24 95.55 49.51 104.39 56.00 106.00 Z"/>
</g>
<g fill="None" fill-opacity="0.0" stroke="#3CAB78" stroke-opacity="0.20" stroke-width="0.3"><path d="
M 368.00 63.00 
C 366.95 62.19 365.93 60.08 365.00 59.00
C 365.00 59.00 364.20 59.24 364.00 59.00
C 364.70 60.69 366.46 62.05 368.00 63.00 Z"/>
</g>
<g fill="None" fill-opacity="0.0" stroke="#329C70" stroke-opacity="0.65" stroke-width="0.3"><path d="
M 13.00 65.00 
C 17.83 66.45 25.93 65.19 31.00 65.00
C 26.06 64.71 17.99 62.33 13.00 65.00 Z"/>
</g>
<g fill="None" fill-opacity="0.0" stroke="#1CAF63" stroke-opacity="0.41" stroke-width="0.3"><path d="
M 349.00 66.00 
C 349.25 66.21 349.00 67.00 349.00 67.00
C 351.65 67.69 348.12 61.30 349.00 66.00 Z"/>
</g>
<g fill="None" fill-opacity="0.0" stroke="#000000" stroke-opacity="0.00" stroke-width="0.3"><path d="
M 224.00 65.00 
C 219.16 62.91 206.34 66.91 211.26 72.74 C 216.17 78.58 225.56 70.46 224.00 65.00 Z"/>
</g>
<g fill="None" fill-opacity="0.0" stroke="#000000" stroke-opacity="0.00" stroke-width="0.3"><path d="
M 349.00 67.00 
C 349.00 67.00 349.25 66.21 349.00 66.00
C 345.92 63.42 332.15 65.88 336.08 71.92 C 340.02 77.95 346.94 71.25 349.00 67.00 Z"/>
</g>
<g fill="None" fill-opacity="0.0" stroke="#00FF00" stroke-opacity="0.00" stroke-width="0.3"><path d="
M 407.00 69.00 
C 406.89 67.80 406.13 66.67 406.00 66.00
C 406.08 67.31 406.83 68.23 407.00 69.00 Z"/>
</g>
<g fill="None" fill-opacity="0.0" stroke="#3E9D79" stroke-opacity="0.36" stroke-width="0.3"><path d="
M 350.00 80.00 
C 352.02 82.22 356.16 80.41 359.00 81.00
C 359.20 79.71 358.74 78.28 359.00 77.00
C 357.53 77.27 358.11 79.00 358.00 80.00
C 355.35 79.81 352.64 80.25 350.00 80.00 Z"/>
</g>
<g fill="None" fill-opacity="0.0" stroke="#3A9D76" stroke-opacity="0.34" stroke-width="0.3"><path d="
M 301.00 81.00 
C 294.65 80.98 286.17 80.00 279.00 80.00
C 279.00 80.00 278.00 80.04 278.00 80.00
C 280.89 83.00 296.49 81.42 301.00 81.00 Z"/>
</g>
<g fill="None" fill-opacity="0.0" stroke="#3E997C" stroke-opacity="0.30" stroke-width="0.3"><path d="
M 405.00 81.00 
C 403.69 78.24 398.98 81.35 397.00 80.00
C 398.05 81.06 403.38 81.97 405.00 81.00 Z"/>
</g>
<g fill="None" fill-opacity="0.0" stroke="#3D9B7A" stroke-opacity="0.28" stroke-width="0.3"><path d="
M 430.00 80.00 
C 427.00 80.00 424.00 80.00 421.00 80.00
C 422.33 81.75 428.60 81.63 430.00 80.00 Z"/>
</g>
<g fill="None" fill-opacity="0.0" stroke="#2C906D" stroke-opacity="0.04" stroke-width="0.3"><path d="
M 69.00 106.00 
C 65.46 106.79 59.61 106.45 56.00 106.00
C 60.00 106.99 64.91 107.51 69.00 106.00 Z"/>
</g>
<g fill="#000000" fill-opacity="0.00" stroke="None">
<path d="
M 0.00 114.00 
L 440.00 114.00
L 440.00 0.00
L 0.00 0.00
L 0.00 114.00
M 81.00 17.00 
C 90.84 26.84 108.65 38.49 112.00 52.00
C 112.71 54.88 114.10 59.17 112.00 62.00
C 112.00 62.50 112.00 63.00 112.00 63.00
C 108.82 71.11 98.61 80.13 91.75 85.75 C 84.89 91.37 77.16 102.99 69.00 106.00
C 64.91 107.51 60.00 106.99 56.00 106.00
C 49.51 104.39 42.24 95.55 37.75 91.25 C 33.26 86.95 21.00 76.83 27.75 72.75 C 34.50 68.67 42.67 81.45 47.25 85.75 C 51.83 90.06 61.56 100.67 68.08 94.08 C 74.59 87.48 80.14 83.79 85.25 77.25 C 90.35 70.70 99.65 67.10 101.00 59.00
C 102.46 50.24 92.05 43.91 87.00 38.00
C 83.75 34.99 81.14 32.14 78.00 29.00
C 75.51 26.51 70.88 20.50 68.00 19.00
C 58.49 16.59 50.50 24.44 45.00 31.00
C 41.46 38.08 33.58 42.27 30.00 49.00
C 45.09 45.08 46.76 68.12 31.00 65.00
C 25.93 65.19 17.83 66.45 13.00 65.00
C 6.09 62.93 6.47 49.78 10.31 45.31 C 14.14 40.83 19.54 35.81 24.00 32.00
C 29.74 25.54 31.91 23.83 38.25 16.25 C 44.59 8.67 49.58 7.57 60.00 7.00 C 70.42 6.43 73.93 9.93 81.00 17.00
M 73.00 55.00 
C 74.00 55.48 74.13 55.39 75.00 56.00
C 76.35 56.94 77.13 57.65 78.00 59.00
C 83.39 67.39 77.63 78.57 67.00 79.00
C 66.21 81.12 66.15 83.30 66.00 86.00
C 61.47 87.65 55.95 83.51 59.00 79.00
C 52.36 78.88 46.76 73.52 46.00 67.00
C 49.26 67.60 51.91 66.17 55.00 66.00
C 57.22 72.81 71.04 73.44 70.00 65.00
C 65.69 64.49 60.23 59.85 54.93 59.07 C 49.63 58.30 45.63 50.04 47.00 45.00 C 48.37 39.96 53.59 35.22 59.00 35.00
C 55.52 29.91 61.16 26.40 66.00 28.00
C 64.12 37.93 80.82 36.13 79.00 47.00
C 72.77 50.51 62.73 37.64 58.10 45.10 C 53.47 52.56 70.60 51.56 73.00 55.00
M 406.00 30.00 
C 406.42 30.41 406.88 31.43 407.00 32.00
C 407.47 34.19 408.26 42.68 408.00 44.00
C 412.22 40.36 420.60 41.74 424.74 44.26 C 428.88 46.77 431.86 54.95 430.00 60.00 C 428.14 65.05 433.32 76.13 430.00 80.00
C 428.60 81.63 422.33 81.75 421.00 80.00
C 418.92 77.26 421.14 69.44 420.00 66.00 C 418.86 62.56 421.61 55.10 418.69 52.31 C 415.78 49.51 409.54 50.49 407.75 53.75 C 405.96 57.01 405.25 62.12 406.00 66.00
C 406.13 66.67 406.89 67.80 407.00 69.00
C 407.53 71.37 406.96 79.82 405.00 81.00
C 403.38 81.97 398.05 81.06 397.00 80.00
C 393.74 76.71 398.25 69.55 397.00 65.00 C 395.75 60.45 397.18 54.02 396.22 48.78 C 395.26 43.54 398.49 35.77 397.00 30.00
C 400.05 31.01 403.97 28.40 406.00 30.00
M 139.00 31.00 
C 142.12 35.46 137.45 46.55 139.00 52.00 C 140.55 57.45 138.13 65.99 139.00 71.00
C 145.23 72.57 152.76 72.56 159.00 71.00
C 161.53 74.14 158.03 77.45 159.00 81.00
C 147.65 79.89 127.23 86.42 129.00 71.00 C 130.77 55.58 127.67 45.90 129.00 31.00
C 130.23 29.24 137.80 29.28 139.00 31.00
M 317.00 73.00 
C 312.97 77.77 307.15 80.42 301.00 81.00
C 296.49 81.42 280.89 83.00 278.00 80.00
C 276.51 63.47 278.91 45.85 278.00 30.00
C 290.55 30.29 308.57 27.21 317.25 37.75 C 325.92 48.29 324.46 62.90 317.00 73.00
M 184.00 42.00 
C 206.67 46.69 199.90 86.43 175.78 81.22 C 151.66 76.01 158.21 36.66 184.00 42.00
M 221.00 50.00 
C 219.85 49.65 217.19 49.79 216.00 50.00
C 211.30 52.70 208.57 57.04 202.00 54.00
C 202.75 47.60 207.08 42.53 214.02 42.02 C 220.96 41.52 227.95 42.38 231.92 49.08 C 235.89 55.78 231.86 63.29 234.00 71.00 C 236.14 78.71 229.90 86.05 224.00 78.00
C 216.78 84.17 202.11 83.55 200.22 71.78 C 198.34 60.01 214.42 55.88 224.00 58.00
C 224.53 54.74 223.47 51.71 221.00 50.00
M 272.00 81.00 
C 269.00 81.00 266.00 81.00 263.00 81.00
C 261.46 73.79 267.98 49.08 255.31 50.35 C 242.63 51.63 251.50 73.17 248.00 81.00
C 236.92 84.14 237.84 75.02 238.00 67.00 C 238.16 58.98 238.25 50.89 239.00 43.00
C 248.36 47.19 260.11 36.70 268.25 45.75 C 276.38 54.81 269.86 69.89 272.00 81.00
M 358.00 53.00 
C 358.01 53.50 358.00 54.00 358.00 54.00
C 360.17 56.93 358.05 60.37 358.00 63.00
C 358.35 67.39 359.97 72.32 359.00 77.00
C 358.74 78.28 359.20 79.71 359.00 81.00
C 356.16 80.41 352.02 82.22 350.00 80.00
C 345.96 79.01 337.63 84.21 331.77 80.23 C 325.92 76.24 322.19 69.56 327.26 63.26 C 332.32 56.95 341.61 57.92 349.00 58.00
C 349.00 56.67 349.00 55.33 349.00 54.00
C 344.05 50.47 338.26 47.85 335.00 56.00
C 332.47 54.86 329.78 54.30 327.00 54.00
C 327.23 38.09 356.50 37.37 358.00 53.00
M 378.00 57.00 
C 383.20 58.49 391.26 58.46 392.92 65.08 C 394.59 71.69 393.56 76.20 386.92 79.92 C 380.28 83.64 375.24 81.75 367.77 79.23 C 360.30 76.71 363.47 66.32 369.00 69.00 C 374.53 71.68 381.26 77.19 383.77 70.77 C 386.27 64.35 371.06 64.88 368.00 63.00
C 366.46 62.05 364.70 60.69 364.00 59.00
C 358.81 52.56 366.87 42.70 374.03 42.02 C 381.18 41.35 391.96 44.02 393.00 53.00
C 386.67 54.97 385.72 53.25 379.92 50.08 C 374.12 46.91 368.63 57.27 378.00 57.00 Z"/>
</g>
<g fill="#1DE46A" fill-opacity="0.94" stroke="None">
<path d="
M 24.00 32.00 
C 25.38 30.82 27.39 29.85 28.00 28.00
C 30.56 29.91 34.73 30.37 37.00 33.00
C 39.48 27.12 42.78 30.27 47.00 27.00
C 46.95 28.54 42.97 29.93 45.00 31.00
C 50.50 24.44 58.49 16.59 68.00 19.00
C 71.82 19.97 75.80 26.23 80.00 29.00
C 82.36 25.51 86.52 28.09 89.00 30.00
C 91.87 24.69 80.07 21.19 81.00 17.00
C 73.93 9.93 70.42 6.43 60.00 7.00 C 49.58 7.57 44.59 8.67 38.25 16.25 C 31.91 23.83 29.74 25.54 24.00 32.00 Z"/>
</g>
<g fill="#17C966" fill-opacity="0.93" stroke="None">
<path d="
M 68.00 19.00 
C 71.97 21.54 74.79 25.79 78.00 29.00
C 80.99 31.99 84.27 34.81 87.00 38.00
C 92.05 43.91 102.46 50.24 101.00 59.00
C 101.82 61.23 105.17 63.49 107.00 65.00
C 108.30 60.48 109.28 60.16 112.00 63.00
C 112.00 63.00 112.00 62.50 112.00 62.00
C 112.00 58.75 112.40 55.22 112.00 52.00
C 108.65 38.49 90.84 26.84 81.00 17.00
C 80.07 21.19 91.87 24.69 89.00 30.00
C 86.52 28.09 82.36 25.51 80.00 29.00
C 75.80 26.23 71.82 19.97 68.00 19.00 Z"/>
</g>
<g fill="#40BC7F" fill-opacity="0.34" stroke="None">
<path d="
M 78.00 29.00 
C 74.79 25.79 71.97 21.54 68.00 19.00
C 70.88 20.50 75.51 26.51 78.00 29.00 Z"/>
</g>
<g fill="#14CC64" fill-opacity="0.93" stroke="None">
<path d="
M 24.00 32.00 
C 19.54 35.81 14.14 40.83 10.31 45.31 C 6.47 49.78 6.09 62.93 13.00 65.00
C 17.99 62.33 26.06 64.71 31.00 65.00
C 46.76 68.12 45.09 45.08 30.00 49.00
C 33.58 42.27 41.46 38.08 45.00 31.00
C 42.97 29.93 46.95 28.54 47.00 27.00
C 42.78 30.27 39.48 27.12 37.00 33.00
C 34.73 30.37 30.56 29.91 28.00 28.00
C 27.39 29.85 25.38 30.82 24.00 32.00 Z"/>
</g>
<g fill="#1CCA6A" fill-opacity="0.89" stroke="None">
<path d="
M 70.00 65.00 
C 70.21 64.17 71.58 63.69 69.00 61.00
C 73.43 65.36 73.16 58.93 70.00 58.00
C 70.67 56.80 71.64 55.42 73.00 55.00
C 70.60 51.56 53.47 52.56 58.10 45.10 C 62.73 37.64 72.77 50.51 79.00 47.00
C 80.82 36.13 64.12 37.93 66.00 28.00
C 61.16 26.40 55.52 29.91 59.00 35.00
C 53.59 35.22 48.37 39.96 47.00 45.00 C 45.63 50.04 49.63 58.30 54.93 59.07 C 60.23 59.85 65.69 64.49 70.00 65.00 Z"/>
</g>
<g fill="#22AF65" fill-opacity="0.70" stroke="None">
<path d="
M 87.00 38.00 
C 84.27 34.81 80.99 31.99 78.00 29.00
C 81.14 32.14 83.75 34.99 87.00 38.00 Z"/>
</g>
<g fill="#18CB64" fill-opacity="0.90" stroke="None">
<path d="
M 397.00 80.00 
C 398.98 81.35 403.69 78.24 405.00 81.00
C 406.96 79.82 407.53 71.37 407.00 69.00
C 406.83 68.23 406.08 67.31 406.00 66.00
C 405.25 62.12 405.96 57.01 407.75 53.75 C 409.54 50.49 415.78 49.51 418.69 52.31 C 421.61 55.10 418.86 62.56 420.00 66.00 C 421.14 69.44 418.92 77.26 421.00 80.00
C 424.00 80.00 427.00 80.00 430.00 80.00
C 433.32 76.13 428.14 65.05 430.00 60.00 C 431.86 54.95 428.88 46.77 424.74 44.26 C 420.60 41.74 412.22 40.36 408.00 44.00
C 407.14 44.74 407.24 45.55 406.00 46.00
C 404.11 46.68 404.42 30.07 406.00 30.00
C 403.97 28.40 400.05 31.01 397.00 30.00
C 398.49 35.77 395.26 43.54 396.22 48.78 C 397.18 54.02 395.75 60.45 397.00 65.00 C 398.25 69.55 393.74 76.71 397.00 80.00 Z"/>
</g>
<g fill="#39CBDE" fill-opacity="0.66" stroke="None">
<path d="
M 129.00 31.00 
C 132.31 32.40 135.74 31.95 139.00 31.00
C 137.80 29.28 130.23 29.24 129.00 31.00 Z"/>
</g>
<g fill="#18D468" fill-opacity="0.90" stroke="None">
<path d="
M 278.00 80.00 
C 278.00 80.04 279.00 80.00 279.00 80.00
C 279.72 72.02 277.89 63.62 280.00 56.00
C 282.03 58.15 284.92 61.41 286.00 57.00
C 286.39 58.57 285.06 61.22 287.00 62.00
C 287.00 54.33 287.00 46.67 287.00 39.00
C 288.26 39.08 287.56 41.06 289.00 41.00
C 295.00 39.55 304.82 37.75 308.92 44.08 C 313.01 50.42 314.10 59.71 310.00 66.00
C 313.75 65.88 314.87 73.60 317.00 73.00
C 324.46 62.90 325.92 48.29 317.25 37.75 C 308.57 27.21 290.55 30.29 278.00 30.00
C 278.91 45.85 276.51 63.47 278.00 80.00 Z"/>
</g>
<g fill="#1AD174" fill-opacity="0.49" stroke="None">
<path d="
M 406.00 46.00 
C 406.98 42.99 406.98 34.58 407.00 32.00
C 406.88 31.43 406.42 30.41 406.00 30.00
C 404.42 30.07 404.11 46.68 406.00 46.00 Z"/>
</g>
<g fill="#21B3D2" fill-opacity="0.88" stroke="None">
<path d="
M 139.00 31.00 
C 135.74 31.95 132.31 32.40 129.00 31.00
C 127.67 45.90 130.77 55.58 129.00 71.00 C 127.23 86.42 147.65 79.89 159.00 81.00
C 158.03 77.45 161.53 74.14 159.00 71.00
C 152.76 72.56 145.23 72.57 139.00 71.00
C 138.13 65.99 140.55 57.45 139.00 52.00 C 137.45 46.55 142.12 35.46 139.00 31.00 Z"/>
</g>
<g fill="#3DBE83" fill-opacity="0.03" stroke="None">
<path d="
M 406.00 46.00 
C 407.24 45.55 407.14 44.74 408.00 44.00
C 408.26 42.68 407.47 34.19 407.00 32.00
C 406.98 34.58 406.98 42.99 406.00 46.00 Z"/>
</g>
<g fill="#27AC69" fill-opacity="0.36" stroke="None">
<path d="
M 287.00 62.00 
C 287.00 65.33 287.00 68.67 287.00 72.00
C 290.17 71.39 294.65 73.25 297.00 71.00
C 294.34 71.10 291.66 70.92 289.00 71.00
C 289.00 61.00 289.00 51.00 289.00 41.00
C 287.56 41.06 288.26 39.08 287.00 39.00
C 287.00 46.67 287.00 54.33 287.00 62.00 Z"/>
</g>
<g fill="#000000" fill-opacity="0.00" stroke="None">
<path d="
M 289.00 41.00 
C 289.00 51.00 289.00 61.00 289.00 71.00
C 291.66 70.92 294.34 71.10 297.00 71.00
C 301.91 70.81 307.22 70.26 310.00 66.00
C 314.10 59.71 313.01 50.42 308.92 44.08 C 304.82 37.75 295.00 39.55 289.00 41.00 Z"/>
</g>
<g fill="#20B6D6" fill-opacity="0.88" stroke="None">
<path d="
M 184.00 42.00 
C 158.21 36.66 151.66 76.01 175.78 81.22 C 199.90 86.43 206.67 46.69 184.00 42.00
M 181.00 50.00 
C 192.79 51.89 189.04 76.26 177.00 73.00 C 164.96 69.73 169.12 48.09 181.00 50.00 Z"/>
</g>
<g fill="#21B7D6" fill-opacity="0.86" stroke="None">
<path d="
M 216.00 50.00 
C 218.49 48.57 217.76 47.36 221.00 50.00
C 223.47 51.71 224.53 54.74 224.00 58.00
C 214.42 55.88 198.34 60.01 200.22 71.78 C 202.11 83.55 216.78 84.17 224.00 78.00
C 229.90 86.05 236.14 78.71 234.00 71.00 C 231.86 63.29 235.89 55.78 231.92 49.08 C 227.95 42.38 220.96 41.52 214.02 42.02 C 207.08 42.53 202.75 47.60 202.00 54.00
C 208.57 57.04 211.30 52.70 216.00 50.00
M 224.00 65.00 
C 225.56 70.46 216.17 78.58 211.26 72.74 C 206.34 66.91 219.16 62.91 224.00 65.00 Z"/>
</g>
<g fill="#22BAD8" fill-opacity="0.83" stroke="None">
<path d="
M 272.00 81.00 
C 269.86 69.89 276.38 54.81 268.25 45.75 C 260.11 36.70 248.36 47.19 239.00 43.00
C 238.25 50.89 238.16 58.98 238.00 67.00 C 237.84 75.02 236.92 84.14 248.00 81.00
C 251.50 73.17 242.63 51.63 255.31 50.35 C 267.98 49.08 261.46 73.79 263.00 81.00
C 266.00 81.00 269.00 81.00 272.00 81.00 Z"/>
</g>
<g fill="#1FD36A" fill-opacity="0.88" stroke="None">
<path d="
M 349.00 54.00 
C 351.59 55.85 355.93 56.30 358.00 53.00
C 356.50 37.37 327.23 38.09 327.00 54.00
C 329.78 54.30 332.47 54.86 335.00 56.00
C 338.26 47.85 344.05 50.47 349.00 54.00 Z"/>
</g>
<g fill="#1ED268" fill-opacity="0.87" stroke="None">
<path d="
M 364.00 59.00 
C 364.20 59.24 365.00 59.00 365.00 59.00
C 368.33 62.39 373.26 57.64 375.00 63.00
C 380.54 63.99 377.61 58.55 378.00 57.00
C 368.63 57.27 374.12 46.91 379.92 50.08 C 385.72 53.25 386.67 54.97 393.00 53.00
C 391.96 44.02 381.18 41.35 374.03 42.02 C 366.87 42.70 358.81 52.56 364.00 59.00 Z"/>
</g>
<g fill="#2DCBEB" fill-opacity="0.70" stroke="None">
<path d="
M 216.00 50.00 
C 217.19 49.79 219.85 49.65 221.00 50.00
C 217.76 47.36 218.49 48.57 216.00 50.00 Z"/>
</g>
<g fill="#000000" fill-opacity="0.00" stroke="None">
<path d="
M 181.00 50.00 
C 169.12 48.09 164.96 69.73 177.00 73.00 C 189.04 76.26 192.79 51.89 181.00 50.00 Z"/>
</g>
<g fill="#3E9378" fill-opacity="0.03" stroke="None">
<path d="
M 112.00 62.00 
C 114.10 59.17 112.71 54.88 112.00 52.00
C 112.40 55.22 112.00 58.75 112.00 62.00 Z"/>
</g>
<g fill="#14BE62" fill-opacity="0.88" stroke="None">
<path d="
M 349.00 54.00 
C 349.00 55.33 349.00 56.67 349.00 58.00
C 341.61 57.92 332.32 56.95 327.26 63.26 C 322.19 69.56 325.92 76.24 331.77 80.23 C 337.63 84.21 345.96 79.01 350.00 80.00
C 352.64 80.25 355.35 79.81 358.00 80.00
C 358.11 79.00 357.53 77.27 359.00 77.00
C 359.97 72.32 358.35 67.39 358.00 63.00
C 357.77 60.04 358.00 56.97 358.00 54.00
C 358.00 54.00 358.01 53.50 358.00 53.00
C 355.93 56.30 351.59 55.85 349.00 54.00
M 349.00 67.00 
C 346.94 71.25 340.02 77.95 336.08 71.92 C 332.15 65.88 345.92 63.42 349.00 66.00
C 348.12 61.30 351.65 67.69 349.00 67.00 Z"/>
</g>
<g fill="#41B180" fill-opacity="0.09" stroke="None">
<path d="
M 358.00 63.00 
C 358.05 60.37 360.17 56.93 358.00 54.00
C 358.00 56.97 357.77 60.04 358.00 63.00 Z"/>
</g>
<g fill="#17B763" fill-opacity="0.88" stroke="None">
<path d="
M 70.00 65.00 
C 71.04 73.44 57.22 72.81 55.00 66.00
C 51.91 66.17 49.26 67.60 46.00 67.00
C 46.76 73.52 52.36 78.88 59.00 79.00
C 55.95 83.51 61.47 87.65 66.00 86.00
C 66.15 83.30 66.21 81.12 67.00 79.00
C 77.63 78.57 83.39 67.39 78.00 59.00
C 77.35 58.18 75.73 56.72 75.00 56.00
C 74.13 55.39 74.00 55.48 73.00 55.00
C 71.64 55.42 70.67 56.80 70.00 58.00
C 73.16 58.93 73.43 65.36 69.00 61.00
C 71.58 63.69 70.21 64.17 70.00 65.00 Z"/>
</g>
<g fill="#3AAE7A" fill-opacity="0.29" stroke="None">
<path d="
M 78.00 59.00 
C 77.13 57.65 76.35 56.94 75.00 56.00
C 75.73 56.72 77.35 58.18 78.00 59.00 Z"/>
</g>
<g fill="#0DB85E" fill-opacity="0.95" stroke="None">
<path d="
M 279.00 80.00 
C 286.17 80.00 294.65 80.98 301.00 81.00
C 307.15 80.42 312.97 77.77 317.00 73.00
C 314.87 73.60 313.75 65.88 310.00 66.00
C 307.22 70.26 301.91 70.81 297.00 71.00
C 294.65 73.25 290.17 71.39 287.00 72.00
C 287.00 68.67 287.00 65.33 287.00 62.00
C 285.06 61.22 286.39 58.57 286.00 57.00
C 284.92 61.41 282.03 58.15 280.00 56.00
C 277.89 63.62 279.72 72.02 279.00 80.00 Z"/>
</g>
<g fill="#18B863" fill-opacity="0.85" stroke="None">
<path d="
M 365.00 59.00 
C 365.93 60.08 366.95 62.19 368.00 63.00
C 371.06 64.88 386.27 64.35 383.77 70.77 C 381.26 77.19 374.53 71.68 369.00 69.00 C 363.47 66.32 360.30 76.71 367.77 79.23 C 375.24 81.75 380.28 83.64 386.92 79.92 C 393.56 76.20 394.59 71.69 392.92 65.08 C 391.26 58.46 383.20 58.49 378.00 57.00
C 377.61 58.55 380.54 63.99 375.00 63.00
C 373.26 57.64 368.33 62.39 365.00 59.00 Z"/>
</g>
<g fill="#13AB5D" fill-opacity="0.92" stroke="None">
<path d="
M 56.00 106.00 
C 59.61 106.45 65.46 106.79 69.00 106.00
C 77.16 102.99 84.89 91.37 91.75 85.75 C 98.61 80.13 108.82 71.11 112.00 63.00
C 109.28 60.16 108.30 60.48 107.00 65.00
C 105.17 63.49 101.82 61.23 101.00 59.00
C 99.65 67.10 90.35 70.70 85.25 77.25 C 80.14 83.79 74.59 87.48 68.08 94.08 C 61.56 100.67 51.83 90.06 47.25 85.75 C 42.67 81.45 34.50 68.67 27.75 72.75 C 21.00 76.83 33.26 86.95 37.75 91.25 C 42.24 95.55 49.51 104.39 56.00 106.00 Z"/>
</g>
<g fill="#3CAB78" fill-opacity="0.20" stroke="None">
<path d="
M 368.00 63.00 
C 366.95 62.19 365.93 60.08 365.00 59.00
C 365.00 59.00 364.20 59.24 364.00 59.00
C 364.70 60.69 366.46 62.05 368.00 63.00 Z"/>
</g>
<g fill="#329C70" fill-opacity="0.65" stroke="None">
<path d="
M 13.00 65.00 
C 17.83 66.45 25.93 65.19 31.00 65.00
C 26.06 64.71 17.99 62.33 13.00 65.00 Z"/>
</g>
<g fill="#1CAF63" fill-opacity="0.41" stroke="None">
<path d="
M 349.00 66.00 
C 349.25 66.21 349.00 67.00 349.00 67.00
C 351.65 67.69 348.12 61.30 349.00 66.00 Z"/>
</g>
<g fill="#000000" fill-opacity="0.00" stroke="None">
<path d="
M 224.00 65.00 
C 219.16 62.91 206.34 66.91 211.26 72.74 C 216.17 78.58 225.56 70.46 224.00 65.00 Z"/>
</g>
<g fill="#000000" fill-opacity="0.00" stroke="None">
<path d="
M 349.00 67.00 
C 349.00 67.00 349.25 66.21 349.00 66.00
C 345.92 63.42 332.15 65.88 336.08 71.92 C 340.02 77.95 346.94 71.25 349.00 67.00 Z"/>
</g>
<g fill="#00FF00" fill-opacity="0.00" stroke="None">
<path d="
M 407.00 69.00 
C 406.89 67.80 406.13 66.67 406.00 66.00
C 406.08 67.31 406.83 68.23 407.00 69.00 Z"/>
</g>
<g fill="#3E9D79" fill-opacity="0.36" stroke="None">
<path d="
M 350.00 80.00 
C 352.02 82.22 356.16 80.41 359.00 81.00
C 359.20 79.71 358.74 78.28 359.00 77.00
C 357.53 77.27 358.11 79.00 358.00 80.00
C 355.35 79.81 352.64 80.25 350.00 80.00 Z"/>
</g>
<g fill="#3A9D76" fill-opacity="0.34" stroke="None">
<path d="
M 301.00 81.00 
C 294.65 80.98 286.17 80.00 279.00 80.00
C 279.00 80.00 278.00 80.04 278.00 80.00
C 280.89 83.00 296.49 81.42 301.00 81.00 Z"/>
</g>
<g fill="#3E997C" fill-opacity="0.30" stroke="None">
<path d="
M 405.00 81.00 
C 403.69 78.24 398.98 81.35 397.00 80.00
C 398.05 81.06 403.38 81.97 405.00 81.00 Z"/>
</g>
<g fill="#3D9B7A" fill-opacity="0.28" stroke="None">
<path d="
M 430.00 80.00 
C 427.00 80.00 424.00 80.00 421.00 80.00
C 422.33 81.75 428.60 81.63 430.00 80.00 Z"/>
</g>
<g fill="#2C906D" fill-opacity="0.04" stroke="None">
<path d="
M 69.00 106.00 
C 65.46 106.79 59.61 106.45 56.00 106.00
C 60.00 106.99 64.91 107.51 69.00 106.00 Z"/>
</g>
</svg>